<svg width="128" height="128" viewBox="0 0 128 128" fill="none" xmlns="http://www.w3.org/2000/svg">
<circle cx="64" cy="64" r="61" fill="url(#paint0_linear_122_15)"/>
<circle cx="63.9999" cy="64" r="54.4643" fill="#202124"/>
<path d="M61.6142 24.1876C62.8129 21.7588 66.2764 21.7588 67.475 24.1876L77.39 44.2775C77.866 45.2419 78.7861 45.9105 79.8505 46.0651L102.021 49.2867C104.701 49.6761 105.772 52.9701 103.832 54.8606L87.7893 70.4984C87.0191 71.2491 86.6677 72.3308 86.8495 73.3908L90.6366 95.4717C91.0945 98.1412 88.2925 100.177 85.8951 98.9166L66.0653 88.4914C65.1133 87.9909 63.976 87.9909 63.024 88.4914L43.1941 98.9166C40.7968 100.177 37.9948 98.1412 38.4526 95.4717L42.2398 73.3908C42.4216 72.3308 42.0702 71.2491 41.3 70.4984L25.2573 54.8606C23.3178 52.9701 24.388 49.6761 27.0684 49.2867L49.2388 46.0651C50.3032 45.9105 51.2233 45.2419 51.6993 44.2775L61.6142 24.1876Z" fill="url(#paint1_linear_122_15)"/>
<defs>
<linearGradient id="paint0_linear_122_15" x1="125" y1="125" x2="3" y2="3" gradientUnits="userSpaceOnUse">
<stop stop-color="#92B2E6"/>
<stop offset="1" stop-color="#4884E6"/>
</linearGradient>
<linearGradient id="paint1_linear_122_15" x1="18.25" y1="18.25" x2="110.839" y2="110.839" gradientUnits="userSpaceOnUse">
<stop stop-color="#92B2E6"/>
<stop offset="1" stop-color="#4884E6"/>
</linearGradient>
</defs>
</svg>
